<svg xmlns="http://www.w3.org/2000/svg" width="28" height="28" viewBox="0 0 28 28">
  <g id="shape-3" fill="none">
    <path d="M14,0A14,14,0,1,1,0,14,14,14,0,0,1,14,0Z" stroke="none"/>
    <path d="M 14 6 C 9.588790893554688 6 6 9.588790893554688 6 14 C 6 18.41120910644531 9.588790893554688 22 14 22 C 18.41120910644531 22 22 18.41120910644531 22 14 C 22 9.588790893554688 18.41120910644531 6 14 6 M 14 0 C 21.73197937011719 0 28 6.268009185791016 28 14 C 28 21.73197937011719 21.73197937011719 28 14 28 C 6.268009185791016 28 0 21.73197937011719 0 14 C 0 6.268009185791016 6.268009185791016 0 14 0 Z" stroke="none" fill="#ff646e"/>
  </g>
</svg>
